<svg fill="none" height="38" viewBox="0 0 466 38" width="466" xmlns="http://www.w3.org/2000/svg" xmlns:xlink="http://www.w3.org/1999/xlink"><linearGradient id="a" gradientUnits="userSpaceOnUse" x1="-26.5031" x2="40.3051" y1="-29.2333" y2="256.897"><stop offset="0" stop-color="#f5a54f"/><stop offset=".307292" stop-color="#f7d659"/><stop offset=".671875" stop-color="#be8d26"/><stop offset=".958333" stop-color="#ca823b"/></linearGradient><g fill="url(#a)"><path d="m20.8602 37.243c-.8734-1.3457-1.8811-2.7587-3.0232-4.239s-2.3514-2.9102-3.6279-4.2895c-1.2429-1.3794-2.5361-2.6915-3.8798-3.9363-1.34364-1.2448-2.67049-2.3214-3.98055-3.2297v15.6945h-6.34875v-34.97208h6.34875v14.43298c1.10851-1.1103 2.26741-2.2878 3.47669-3.5326 1.20926-1.2784 2.40176-2.5569 3.57746-3.83531 1.2093-1.31209 2.3514-2.57371 3.4263-3.78486 1.0749-1.21116 2.0491-2.30456 2.9225-3.28021h7.6084c-1.1085 1.27844-2.2842 2.60734-3.5271 3.98672-1.2429 1.37937-2.5193 2.77556-3.8294 4.18856-1.3101 1.3794-2.6369 2.7588-3.9806 4.1381-1.31 1.3794-2.6033 2.6915-3.8798 3.9363 1.4109 1.0766 2.8385 2.3382 4.2829 3.7848 1.478 1.4131 2.9225 2.9438 4.3333 4.5923 1.4108 1.6149 2.7545 3.3139 4.031 5.097 1.31 1.7494 2.5025 3.4989 3.5774 5.2483z"/><path d="m36.4356 19.7317c0 1.9177.2352 3.6671.7054 5.2484.4703 1.5476 1.1421 2.8765 2.0155 3.9867.907 1.0766 1.9987 1.9177 3.2752 2.5232 1.2764.6056 2.7209.9084 4.3332.9084 1.5788 0 3.0065-.3028 4.2829-.9084 1.2765-.6055 2.3514-1.4466 3.2248-2.5232.907-1.1102 1.5956-2.4391 2.0658-3.9867.4703-1.5813.7055-3.3307.7055-5.2484 0-1.9176-.2352-3.6502-.7055-5.1978-.4702-1.5813-1.1588-2.9102-2.0658-3.9868-.8734-1.11018-1.9483-1.96808-3.2248-2.57366-1.2764-.60558-2.7041-.90837-4.2829-.90837-1.6123 0-3.0568.30279-4.3332.90837-1.2765.60558-2.3682 1.46348-3.2752 2.57366-.8734 1.1103-1.5452 2.4392-2.0155 3.9868-.4702 1.5476-.7054 3.2802-.7054 5.1978zm27.2593 0c0 2.9943-.4535 5.6353-1.3604 7.923-.8734 2.2878-2.0827 4.2054-3.6279 5.753-1.5116 1.5139-3.2919 2.6578-5.341 3.4316s-4.2325 1.1607-6.5503 1.1607-4.518-.3869-6.6007-1.1607c-2.049-.7738-3.8462-1.9177-5.3914-3.4316-1.5116-1.5476-2.7208-3.4652-3.6278-5.753-.907-2.2877-1.3605-4.9287-1.3605-7.923 0-2.9942.4535-5.6184 1.3605-7.8725.907-2.28771 2.133-4.20537 3.6782-5.75296 1.5788-1.54759 3.3927-2.70828 5.4418-3.48207s4.2157-1.16069 6.4999-1.16069 4.4509.3869 6.4999 1.16069c2.0491.77379 3.8294 1.93448 5.341 3.48207 1.5452 1.54759 2.7713 3.46525 3.6783 5.75296.9069 2.2541 1.3604 4.8783 1.3604 7.8725z"/><path d="m82.9778 7.72111c-.1008 2.28779-.2184 4.62599-.3528 7.01459-.1343 2.355-.3863 4.6428-.7558 6.8632-.3359 2.1868-.8397 4.2559-1.5116 6.2072-.6718 1.9513-1.5955 3.6671-2.7712 5.1474-1.1757 1.4467-2.6538 2.6074-4.4341 3.4821-1.7467.8747-3.8966 1.3457-6.4495 1.413l-.7054-5.5511c1.2093-.1346 2.2674-.3701 3.1743-.7065.907-.3365 1.6964-.7738 2.3682-1.3121.6719-.572 1.2597-1.2616 1.7636-2.0691.5038-.8411.9405-1.8167 1.31-2.9269.907-2.6242 1.5117-5.9044 1.814-9.8407.3023-3.9362.4535-8.32666.4535-13.17128h21.8175v34.97208h-6.3992v-29.52189z"/><path d="m107.072 37.243v-34.97208h22.422v5.39973h-16.073v8.62945h14.31v5.2988h-14.31v10.2444h17.283v5.3997z"/><path d="m150.836 38c-2.621 0-4.972-.4037-7.055-1.2112-2.082-.8074-3.846-1.9849-5.29-3.5325-1.445-1.5812-2.553-3.4989-3.326-5.753-.772-2.2541-1.159-4.8446-1.159-7.7716 0-2.9269.437-5.5174 1.31-7.7715.907-2.25414 2.133-4.15498 3.679-5.70256 1.545-1.58123 3.359-2.77557 5.441-3.58301 2.083-.80743 4.317-1.21115 6.702-1.21115 1.444 0 2.754.11775 3.93.35325 1.176.20186 2.2.43736 3.074.70651.873.26915 1.595.55511 2.166.8579s.974.52147 1.21.65604l-1.865 5.19788c-.806-.50465-1.965-.97565-3.476-1.41301-1.478-.47101-3.091-.70651-4.838-.70651-1.511 0-2.922.26914-4.232.80743-1.31.50465-2.452 1.27845-3.426 2.32143-.941 1.0429-1.68 2.355-2.217 3.9362-.538 1.5812-.807 3.4148-.807 5.5007 0 1.8504.202 3.5493.605 5.0969.437 1.5476 1.092 2.8933 1.965 4.0372.873 1.1102 1.982 1.985 3.326 2.6242 1.343.6056 2.956.9083 4.837.9083 2.25 0 4.081-.2186 5.492-.656 1.411-.471 2.502-.9084 3.275-1.3121l1.713 5.1979c-.403.2691-.957.5383-1.663.8074-.671.2692-1.478.5383-2.418.8075-.941.2355-1.999.4205-3.174.5551-1.176.1682-2.436.2523-3.779.2523z"/><path d="m171.752 19.7317c0 1.9177.235 3.6671.705 5.2484.471 1.5476 1.143 2.8765 2.016 3.9867.907 1.0766 1.999 1.9177 3.275 2.5232 1.276.6056 2.721.9084 4.333.9084 1.579 0 3.007-.3028 4.283-.9084 1.277-.6055 2.352-1.4466 3.225-2.5232.907-1.1102 1.596-2.4391 2.066-3.9867.47-1.5813.705-3.3307.705-5.2484 0-1.9176-.235-3.6502-.705-5.1978-.47-1.5813-1.159-2.9102-2.066-3.9868-.873-1.11018-1.948-1.96808-3.225-2.57366-1.276-.60558-2.704-.90837-4.283-.90837-1.612 0-3.057.30279-4.333.90837s-2.368 1.46348-3.275 2.57366c-.873 1.1103-1.545 2.4392-2.016 3.9868-.47 1.5476-.705 3.2802-.705 5.1978zm27.259 0c0 2.9943-.453 5.6353-1.36 7.923-.874 2.2878-2.083 4.2054-3.628 5.753-1.512 1.5139-3.292 2.6578-5.341 3.4316s-4.233 1.1607-6.55 1.1607c-2.318 0-4.518-.3869-6.601-1.1607-2.049-.7738-3.846-1.9177-5.391-3.4316-1.512-1.5476-2.721-3.4652-3.628-5.753-.907-2.2877-1.361-4.9287-1.361-7.923 0-2.9942.454-5.6184 1.361-7.8725.907-2.28771 2.133-4.20537 3.678-5.75296 1.579-1.54759 3.393-2.70828 5.442-3.48207s4.215-1.16069 6.5-1.16069c2.284 0 4.451.3869 6.5 1.16069s3.829 1.93448 5.341 3.48207c1.545 1.54759 2.771 3.46525 3.678 5.75296.907 2.2541 1.36 4.8783 1.36 7.8725z"/><path d="m232.248 9.28552c-2.956.16822-5.324 1.07658-7.105 2.72508-1.747 1.6485-2.62 3.8353-2.62 6.5604 0 1.3794.218 2.6242.655 3.7344.47 1.1103 1.125 2.0691 1.965 2.8765.874.7738 1.898 1.3962 3.074 1.8672 1.209.4374 2.553.6729 4.031.7065zm0 27.95748v-4.1885c-2.419-.0673-4.619-.4711-6.601-1.2112-1.982-.7402-3.695-1.7495-5.139-3.0279-1.411-1.2784-2.503-2.7756-3.276-4.4914-.772-1.7494-1.158-3.6503-1.158-5.7025 0-2.0186.386-3.8858 1.158-5.6016.773-1.7494 1.865-3.26337 3.276-4.54181 1.444-1.31209 3.157-2.35503 5.139-3.12882s4.182-1.22798 6.601-1.36255v-3.98672h6.197v3.98672c2.419.13457 4.619.58876 6.601 1.36255s3.678 1.81673 5.089 3.12882c1.411 1.27844 2.503 2.79241 3.275 4.54181.806 1.7158 1.21 3.583 1.21 5.6016 0 2.0522-.404 3.9531-1.21 5.7025-.772 1.7158-1.864 3.213-3.275 4.4914s-3.107 2.2877-5.089 3.0279c-1.982.7401-4.182 1.1439-6.601 1.2112v4.1885zm6.197-9.4874c1.445-.0336 2.772-.2691 3.981-.7065 1.209-.471 2.234-1.0934 3.073-1.8672.84-.8074 1.495-1.7662 1.966-2.8765.47-1.1102.705-2.355.705-3.7344 0-2.7251-.89-4.9119-2.671-6.5604-1.746-1.6485-4.098-2.55686-7.054-2.72508z"/><path d="m266.523 19.7317c0 1.9177.235 3.6671.705 5.2484.47 1.5476 1.142 2.8765 2.016 3.9867.906 1.0766 1.998 1.9177 3.275 2.5232 1.276.6056 2.721.9084 4.333.9084 1.579 0 3.006-.3028 4.283-.9084 1.276-.6055 2.351-1.4466 3.225-2.5232.907-1.1102 1.595-2.4391 2.065-3.9867.471-1.5813.706-3.3307.706-5.2484 0-1.9176-.235-3.6502-.706-5.1978-.47-1.5813-1.158-2.9102-2.065-3.9868-.874-1.11018-1.949-1.96808-3.225-2.57366-1.277-.60558-2.704-.90837-4.283-.90837-1.612 0-3.057.30279-4.333.90837-1.277.60558-2.369 1.46348-3.275 2.57366-.874 1.1103-1.546 2.4392-2.016 3.9868s-.705 3.2802-.705 5.1978zm27.259 0c0 2.9943-.454 5.6353-1.36 7.923-.874 2.2878-2.083 4.2054-3.628 5.753-1.512 1.5139-3.292 2.6578-5.341 3.4316s-4.233 1.1607-6.551 1.1607c-2.317 0-4.518-.3869-6.6-1.1607-2.049-.7738-3.847-1.9177-5.392-3.4316-1.511-1.5476-2.721-3.4652-3.628-5.753-.907-2.2877-1.36-4.9287-1.36-7.923 0-2.9942.453-5.6184 1.36-7.8725.907-2.28771 2.133-4.20537 3.679-5.75296 1.578-1.54759 3.392-2.70828 5.441-3.48207s4.216-1.16069 6.5-1.16069c2.285 0 4.451.3869 6.5 1.16069s3.83 1.93448 5.341 3.48207c1.545 1.54759 2.772 3.46525 3.679 5.75296.906 2.2541 1.36 4.8783 1.36 7.8725z"/><path d="m310.623 1.91766c5.072 0 8.952.92519 11.639 2.77557 2.721 1.85037 4.081 4.74369 4.081 8.67997 0 2.0522-.369 3.8185-1.108 5.2988-.706 1.4466-1.747 2.641-3.124 3.583-1.377.9083-3.057 1.5812-5.039 2.0186-1.982.4373-4.249.656-6.802.656h-3.175v12.3134h-6.348v-34.46744c1.478-.33643 3.107-.55511 4.887-.65604 1.814-.13457 3.477-.20186 4.989-.20186zm.453 5.50067c-1.612 0-2.939.05046-3.981.15139v11.90968h3.074c3.057 0 5.408-.4205 7.054-1.2616 1.646-.8747 2.469-2.5064 2.469-4.8951 0-1.1439-.218-2.1027-.655-2.8765-.436-.77378-1.041-1.37936-1.814-1.81672-.772-.43736-1.696-.74015-2.771-.90837-1.041-.20185-2.167-.30278-3.376-.30278z"/><path d="m356.477 2.27092v5.50066h-10.732v29.47142h-6.4v-29.47142h-10.732v-5.50066z"/><path d="m379.286 26.7968c-.84 1.884-1.713 3.5325-2.62 4.9456-.873 1.3793-1.847 2.5232-2.922 3.4316-1.042.9083-2.217 1.5812-3.528 2.0186-1.276.4373-2.72.656-4.333.656-.974 0-1.998-.1009-3.073-.3028-1.042-.2018-1.898-.4542-2.57-.757l1.159-5.2483c.638.2692 1.31.4878 2.015.656.706.1346 1.428.2019 2.167.2019 1.545 0 2.822-.3532 3.829-1.0598 1.042-.7065 1.999-1.8672 2.872-3.482-1.41-2.2878-2.771-4.5923-4.081-6.9137-1.276-2.3214-2.469-4.5755-3.577-6.7623-1.109-2.2204-2.133-4.33996-3.074-6.35855-.907-2.0186-1.73-3.86897-2.469-5.55113h7.105c.537 1.37937 1.142 2.85967 1.813 4.4409.706 1.58123 1.445 3.21292 2.217 4.89508.807 1.6822 1.646 3.398 2.52 5.1474.873 1.7495 1.747 3.4989 2.62 5.2484 1.209-2.9943 2.368-6.1904 3.477-9.5884 1.108-3.39792 2.149-6.77906 3.124-10.14338h6.852c-.806 2.48959-1.612 4.84462-2.418 7.06507-.806 2.18681-1.613 4.28951-2.419 6.30811-.773 1.9849-1.562 3.9026-2.368 5.753-.773 1.8167-1.545 3.6166-2.318 5.3997z"/><path d="m414.769 2.27092h6.349v34.97208h-6.349v-15.4927h-15.166v15.4927h-6.349v-34.97208h6.349v13.97878h15.166z"/><path d="m454.814 26.2417c0 1.884-.369 3.5325-1.108 4.9456-.706 1.413-1.747 2.6073-3.124 3.583-1.344.942-2.99 1.6653-4.938 2.1699-1.915.471-4.082.7065-6.5.7065-1.411 0-2.973-.0841-4.686-.2523s-3.376-.4373-4.988-.8074v-34.31608h6.348v12.56578c.504-.0673 1.008-.101 1.512-.101h1.461c5.308 0 9.305.9589 11.992 2.8765 2.687 1.884 4.031 4.7605 4.031 8.6295zm4.837-23.97078h6.349v34.97208h-6.349zm-21.162 17.91498c-.37 0-.806 0-1.31 0-.471 0-.924.0337-1.361.101v11.8087c.471.0673.974.1009 1.512.1009h2.267c1.142 0 2.234-.0841 3.275-.2523 1.075-.2018 1.999-.5214 2.772-.9588.772-.471 1.394-1.0766 1.864-1.8167.47-.7738.705-1.7495.705-2.927s-.235-2.1532-.705-2.927c-.437-.7738-1.075-1.3962-1.915-1.8672-.839-.471-1.864-.7906-3.073-.9588-1.176-.2019-2.52-.3028-4.031-.3028z"/></g></svg>